<svg id="圖層_1" data-name="圖層 1" xmlns="http://www.w3.org/2000/svg" viewBox="0 0 283.46 283.46"><path d="M176.33,204.23l11.8,20.41,24.36-43.31,30.36,54.07.45-.17c-.25-1.39-.47-2.8-.76-4.19-.7-3.39-1.48-6.76-2.13-10.16a4,4,0,0,1,.2-2.47c2.49-4.53,5.1-9,7.94-14,9.91,16.36,19.45,32.4,29,48.38-9.59,18.4-33.3,37.64-64,37.68-28.76,0-50.61-13.05-66.29-37.17C157,236.92,166.57,220.74,176.33,204.23Zm42.82,14.63,12.28,8.86s.15-.05.2-.1a1,1,0,0,0,.14-.25L212.5,193.08l-17.74,31.63.36.26,11.06-8.19c2.08,4.67,4,8.95,6.09,13.6ZM180,238.76c1.48-2.54,2.67-4.73,4-6.83a2.61,2.61,0,0,0,0-3.09c-1.9-3.19-3.73-6.41-5.62-9.61-.67-1.13-1.43-2.22-2.39-3.72-3.73,7.19-8.08,13.44-11.46,20.25l.41.32,9.72-6.58Z" transform="translate(-70.87 -70.87)"/><path d="M276.66,169.19l20.23-42.45-.46-.47-31.95,15.28-.36-.46c8.13-9,17-17.24,25.68-26.29l-20.31-10.15c4.71-5.09,9.61-9.75,14.57-14.72l19.35,19.47c3.45-3.51,6.77-6.89,10.1-10.26,4.61-4.68,9.18-9.39,13.87-14a6,6,0,0,0,2-4.55c0-2.67.23-5.35.37-8.38l24.59-1.36c-.26,8.36-.52,16.44-.78,24.71-3.1.19-6,.45-8.9.53a4.31,4.31,0,0,0-3.2,1.31c-5.12,5.25-10.32,10.43-15.43,15.68-3.07,3.15-6,6.4-9,9.58l18.25,18.72-14.18,14.8c-3.75-6.69-6.89-13.48-10.42-20.44l-33.49,33.88Z" transform="translate(-70.87 -70.87)"/><path d="M108.35,122.58c-.58-.68-1-1.23-1.47-1.71q-7-7.09-14-14.17c-2.85-2.88-5.74-5.73-8.55-8.65a5.88,5.88,0,0,0-4.54-2c-2.64,0-5.28-.37-8.2-.6-.23-8.11-.46-16.13-.7-24.5,8.2.23,16.19.76,24.41,1.35.16,2.84.41,5.51.43,8.18A6.92,6.92,0,0,0,98,85.74c7.62,7.53,15.12,15.16,22.67,22.76a8.43,8.43,0,0,0,.71.6l18.88-19.33,14.89,15.06-20,10c8.77,8.87,17.31,17.5,25.84,26.14-2.45-.17-4.41-1.46-6.49-2.39s-4.34-2.07-6.51-3.12l-6.29-3-6.5-3.14a37.49,37.49,0,0,0-6.74-2.71L149,170l-.29.11c-11.38-11.41-22.77-22.81-34.33-34.41L104.08,156.4l-14.7-14.66C95.74,135.32,102,129,108.35,122.58Z" transform="translate(-70.87 -70.87)"/><path d="M341.63,345.33l-22.11-4.76a3.32,3.32,0,0,0-.49-.14c-4.8-.16-8.09-2.76-11.37-6.12-16.29-16.68-32.79-33.13-49.22-49.67-.54-.54-1.05-1.13-1.69-1.83l10.86-8.54c.62.55,1.34,1.14,2,1.8,9.37,9.43,18.7,18.89,28.09,28.3,4.94,4.95,9.94,9.83,15,14.7,2,2,4.61,3.14,7.69,4.52-1.36-3.35-2.52-6.24-4.68-8.49-4.23-4.43-8.59-8.73-12.91-13.07-7.66-7.72-15.35-15.4-23-23.15-2.78-2.83-5.39-5.82-8.15-8.81l8.45-10.69c1.08,1,2.1,1.92,3.06,2.88q12.9,12.92,25.78,25.86,13.23,13.31,26.41,26.68a5.91,5.91,0,0,1,1.64,2.83c1.66,8.84,3.21,17.72,4.78,26.58A5.26,5.26,0,0,1,341.63,345.33Z" transform="translate(-70.87 -70.87)"/><path d="M144.79,259.43l8.82,10.95c-2.06,2.1-4.16,4.24-6.27,6.36q-9.5,9.54-19,19.07c-6,6.05-12,12.17-18.08,18.16-2.61,2.57-3.9,5.8-5.6,9.58,3.19-1.52,5.86-2.73,8-4.84,4.86-4.78,9.68-9.6,14.51-14.42q10-10,20-19.94,4.59-4.58,9.2-9.11c.36-.35.75-.67,1.08-1,3.63,2.83,7.14,5.59,10.87,8.51-.52.59-1,1.25-1.59,1.83q-19.17,19.28-38.36,38.56c-4.8,4.83-9.54,9.74-14.38,14.54a6.84,6.84,0,0,1-3,1.76c-9.06,2-18.13,3.91-27.42,5.89a8.29,8.29,0,0,1-.07-1.82c1.51-8.71,3-17.41,4.62-26.09A4.93,4.93,0,0,1,89.31,315q19.25-19.39,38.57-38.72c4.94-4.95,9.85-9.92,14.79-14.88C143.33,260.76,144,260.14,144.79,259.43Z" transform="translate(-70.87 -70.87)"/><path d="M261.34,188.53a57.69,57.69,0,0,0-26.71-26.84l50.76-24.41C285.14,139.76,265.73,181.08,261.34,188.53Z" transform="translate(-70.87 -70.87)"/><path d="M190.7,161.7c-12.16,6-21,14.56-26.63,26.41-1.36-1.37-23.28-46.87-24.48-50.82Z" transform="translate(-70.87 -70.87)"/><path d="M266.08,210.86a61.74,61.74,0,0,0-4.52-21.72c29.21,6.89,57.88,14.05,86.49,21,.08.28.14.38.12.43a.28.28,0,0,1-.21.14l-80.39.3A14.13,14.13,0,0,1,266.08,210.86Z" transform="translate(-70.87 -70.87)"/><path d="M212.68,156.87a54.25,54.25,0,0,0-21,4.47c-.07-2.84,19.2-80.12,21-84Z" transform="translate(-70.87 -70.87)"/><path d="M158.74,210.64c.18,2.17,0,4.31.59,6.25,1,3.53-.1,6.35-2,9.12-.88,1.27-1.59,2.66-2.5,4.23L77.27,211.05l0-.41Z" transform="translate(-70.87 -70.87)"/><path d="M107.8,224c1.59.41,3.15.83,4.72,1.22,4.09,1,8.17,2,12.27,3a2.06,2.06,0,0,1,1.89,1.75,97.08,97.08,0,0,0,10.79,28.22,2.24,2.24,0,0,1,.17.55l-13.15,12.64C117.8,264.28,106.6,233.11,107.8,224Z" transform="translate(-70.87 -70.87)"/><path d="M298.76,228.57l18.32-4.09c1.55,7.94-8.66,36.75-16.74,47.41a2.24,2.24,0,0,1-.64-.31c-3.7-3.75-7.34-7.56-11.12-11.23a2.4,2.4,0,0,1-.44-3.39,102.25,102.25,0,0,0,7.93-18.29c.9-2.89,1.55-5.85,2.31-8.78C298.49,229.48,298.61,229.08,298.76,228.57Z" transform="translate(-70.87 -70.87)"/><path d="M165.9,138.55l-13-13c7.81-7.41,34.16-17.57,46-17.71-.43,2-.8,4-1.28,6-.94,3.86-2,7.7-2.87,11.57-.31,1.37-1.32,1.43-2.26,1.74-4,1.31-8.09,2.35-12,4-4.26,1.78-8.31,4.07-12.45,6.16C167.42,137.65,166.78,138.05,165.9,138.55Z" transform="translate(-70.87 -70.87)"/><path d="M226.17,107.61a106.16,106.16,0,0,1,45.93,17.7l-12.92,13.14c-2.72-1.49-5.18-2.89-7.68-4.21a71.87,71.87,0,0,0-18.24-6.9c-1.89-.41-2.91-1.17-3.31-3.22-.89-4.5-2.08-8.93-3.14-13.38C226.6,109.83,226.43,108.91,226.17,107.61Z" transform="translate(-70.87 -70.87)"/><path d="M154.21,304.89l12.65-12.58c1.75.93,3.69,2,5.67,3a81,81,0,0,0,19.5,7.19,2.75,2.75,0,0,1,2.53,2.38c1.11,4.79,2.41,9.54,3.62,14.31.21.83.35,1.66.53,2.51C190.24,322.26,165.53,313.8,154.21,304.89Z" transform="translate(-70.87 -70.87)"/><path d="M226.49,321.74c1.59-6.32,3.13-12.42,4.71-18.73,9.67-1.91,18.57-5.91,27.22-10.79l12.13,12.69C263.63,311.91,237.39,321.84,226.49,321.74Z" transform="translate(-70.87 -70.87)"/><path d="M287.83,166.15l12.73-12.42c5.54,4.39,16.91,34.06,16.39,43.35-.57-.09-1.13-.14-1.68-.27-5.17-1.26-10.32-2.58-15.51-3.77a2.52,2.52,0,0,1-2.15-2.19,81.74,81.74,0,0,0-9.34-23.53A10.85,10.85,0,0,1,287.83,166.15Z" transform="translate(-70.87 -70.87)"/><path d="M136.94,166.55c-1.95,4.25-4.08,8.41-5.79,12.74s-3,8.81-4.56,13.5L108.13,197a15.75,15.75,0,0,1,0-2.58,109.17,109.17,0,0,1,15.36-39.66c.23-.36.49-.7.71-1Z" transform="translate(-70.87 -70.87)"/><path d="M212.47,296.16l15.22-1.37-14.88,59.54-.34,0Z" transform="translate(-70.87 -70.87)"/></svg>